<mxfile host="65bd71144e">
    <diagram id="7nQOECTQg80zizowMsFG" name="Strona-1">
        <mxGraphModel dx="1508" dy="452" grid="1" gridSize="10" guides="1" tooltips="1" connect="1" arrows="1" fold="1" page="1" pageScale="1" pageWidth="850" pageHeight="1100" background="#FFFFFF" math="0" shadow="0">
            <root>
                <mxCell id="0"/>
                <mxCell id="1" parent="0"/>
                <mxCell id="2" value="" style="edgeStyle=orthogonalEdgeStyle;rounded=0;orthogonalLoop=1;jettySize=auto;html=1;" parent="1" source="4" target="13" edge="1">
                    <mxGeometry relative="1" as="geometry">
                        <Array as="points">
                            <mxPoint x="670" y="300"/>
                            <mxPoint x="670" y="300"/>
                        </Array>
                    </mxGeometry>
                </mxCell>
                <mxCell id="3" value="UART" style="edgeLabel;html=1;align=center;verticalAlign=middle;resizable=0;points=[];" parent="2" vertex="1" connectable="0">
                    <mxGeometry x="0.2087" y="1" relative="1" as="geometry">
                        <mxPoint y="2" as="offset"/>
                    </mxGeometry>
                </mxCell>
                <mxCell id="4" value="&amp;lt;&amp;lt;processor&amp;gt;&amp;gt;&lt;br&gt;&lt;b&gt;ESP8266 WiFi Module&lt;/b&gt;" style="verticalAlign=top;align=center;spacingTop=8;spacingLeft=2;spacingRight=12;shape=cube;size=10;direction=south;fontStyle=4;html=1;whiteSpace=wrap;" parent="1" vertex="1">
                    <mxGeometry x="570" y="150" width="170" height="110" as="geometry"/>
                </mxCell>
                <mxCell id="5" style="edgeStyle=orthogonalEdgeStyle;rounded=0;orthogonalLoop=1;jettySize=auto;html=1;" parent="1" source="13" edge="1">
                    <mxGeometry relative="1" as="geometry">
                        <mxPoint x="640" y="260" as="targetPoint"/>
                        <Array as="points">
                            <mxPoint x="640" y="260"/>
                        </Array>
                    </mxGeometry>
                </mxCell>
                <mxCell id="6" value="UART" style="edgeLabel;html=1;align=center;verticalAlign=middle;resizable=0;points=[];" parent="5" vertex="1" connectable="0">
                    <mxGeometry x="0.2913" relative="1" as="geometry">
                        <mxPoint y="2" as="offset"/>
                    </mxGeometry>
                </mxCell>
                <mxCell id="7" value="" style="edgeStyle=orthogonalEdgeStyle;rounded=0;orthogonalLoop=1;jettySize=auto;html=1;" parent="1" source="13" target="16" edge="1">
                    <mxGeometry relative="1" as="geometry">
                        <Array as="points">
                            <mxPoint x="920" y="410"/>
                            <mxPoint x="920" y="410"/>
                        </Array>
                    </mxGeometry>
                </mxCell>
                <mxCell id="8" value="SoftwareSerial?" style="edgeLabel;html=1;align=center;verticalAlign=middle;resizable=0;points=[];" parent="7" vertex="1" connectable="0">
                    <mxGeometry x="0.2322" y="3" relative="1" as="geometry">
                        <mxPoint as="offset"/>
                    </mxGeometry>
                </mxCell>
                <mxCell id="9" style="edgeStyle=orthogonalEdgeStyle;rounded=0;orthogonalLoop=1;jettySize=auto;html=1;entryX=0;entryY=0;entryDx=35;entryDy=170;entryPerimeter=0;" parent="1" source="13" target="17" edge="1">
                    <mxGeometry relative="1" as="geometry">
                        <Array as="points">
                            <mxPoint x="870" y="360"/>
                            <mxPoint x="870" y="265"/>
                        </Array>
                    </mxGeometry>
                </mxCell>
                <mxCell id="10" value="GPIO" style="edgeLabel;html=1;align=center;verticalAlign=middle;resizable=0;points=[];" parent="9" vertex="1" connectable="0">
                    <mxGeometry x="0.4771" relative="1" as="geometry">
                        <mxPoint x="-87" y="95" as="offset"/>
                    </mxGeometry>
                </mxCell>
                <mxCell id="11" value="" style="edgeStyle=orthogonalEdgeStyle;rounded=0;orthogonalLoop=1;jettySize=auto;html=1;" parent="1" source="13" target="18" edge="1">
                    <mxGeometry relative="1" as="geometry">
                        <Array as="points">
                            <mxPoint x="655" y="490"/>
                            <mxPoint x="655" y="490"/>
                        </Array>
                    </mxGeometry>
                </mxCell>
                <mxCell id="12" value="GPIO" style="edgeLabel;html=1;align=center;verticalAlign=middle;resizable=0;points=[];" parent="11" vertex="1" connectable="0">
                    <mxGeometry x="-0.189" y="-2" relative="1" as="geometry">
                        <mxPoint x="2" y="7" as="offset"/>
                    </mxGeometry>
                </mxCell>
                <mxCell id="13" value="&amp;lt;&amp;lt;processor&amp;gt;&amp;gt;&lt;br&gt;&lt;b&gt;Arduino Uno&lt;/b&gt;" style="verticalAlign=top;align=center;spacingTop=8;spacingLeft=2;spacingRight=12;shape=cube;size=10;direction=south;fontStyle=4;html=1;whiteSpace=wrap;" parent="1" vertex="1">
                    <mxGeometry x="570" y="340" width="170" height="110" as="geometry"/>
                </mxCell>
                <mxCell id="14" style="edgeStyle=orthogonalEdgeStyle;rounded=0;orthogonalLoop=1;jettySize=auto;html=1;entryX=0;entryY=0;entryDx=50;entryDy=0;entryPerimeter=0;" parent="1" source="16" target="13" edge="1">
                    <mxGeometry relative="1" as="geometry"/>
                </mxCell>
                <mxCell id="15" value="SoftwareSerial?" style="edgeLabel;html=1;align=center;verticalAlign=middle;resizable=0;points=[];" parent="14" vertex="1" connectable="0">
                    <mxGeometry x="-0.2783" relative="1" as="geometry">
                        <mxPoint x="14" as="offset"/>
                    </mxGeometry>
                </mxCell>
                <mxCell id="16" value="&amp;lt;&amp;lt;device&amp;gt;&amp;gt;&lt;br&gt;&lt;b&gt;Lidar Luna&lt;/b&gt;" style="verticalAlign=top;align=center;spacingTop=8;spacingLeft=2;spacingRight=12;shape=cube;size=10;direction=south;fontStyle=4;html=1;whiteSpace=wrap;" parent="1" vertex="1">
                    <mxGeometry x="960" y="360" width="170" height="60" as="geometry"/>
                </mxCell>
                <mxCell id="17" value="&amp;lt;&amp;lt;device&amp;gt;&amp;gt;&lt;br&gt;&lt;b&gt;Servo Controller&lt;/b&gt;" style="verticalAlign=top;align=center;spacingTop=8;spacingLeft=2;spacingRight=12;shape=cube;size=10;direction=south;fontStyle=4;html=1;whiteSpace=wrap;" parent="1" vertex="1">
                    <mxGeometry x="960" y="230" width="170" height="60" as="geometry"/>
                </mxCell>
                <mxCell id="18" value="&amp;lt;&amp;lt;device&amp;gt;&amp;gt;&lt;br&gt;&lt;b&gt;DC Motor Controller&lt;/b&gt;" style="verticalAlign=top;align=center;spacingTop=8;spacingLeft=2;spacingRight=12;shape=cube;size=10;direction=south;fontStyle=4;html=1;whiteSpace=wrap;" parent="1" vertex="1">
                    <mxGeometry x="570" y="525" width="170" height="60" as="geometry"/>
                </mxCell>
                <mxCell id="19" value="&amp;lt;&amp;lt;device&amp;gt;&amp;gt;&lt;br&gt;&lt;b&gt;Oracle Cloud Server&lt;/b&gt;" style="verticalAlign=top;align=center;spacingTop=8;spacingLeft=2;spacingRight=12;shape=cube;size=10;direction=south;fontStyle=4;html=1;whiteSpace=wrap;container=1;" parent="1" vertex="1">
                    <mxGeometry x="-110" y="150" width="484" height="730" as="geometry"/>
                </mxCell>
                <mxCell id="20" value="&amp;lt;&amp;lt;execution Environment&amp;gt;&amp;gt;&lt;br&gt;&lt;b&gt;Ubuntu&lt;/b&gt;" style="verticalAlign=top;align=center;spacingTop=8;spacingLeft=2;spacingRight=12;shape=cube;size=10;direction=south;fontStyle=4;html=1;whiteSpace=wrap;container=1;" parent="19" vertex="1">
                    <mxGeometry x="32" y="70.00344827586207" width="420" height="616.7241379310344" as="geometry"/>
                </mxCell>
                <mxCell id="21" value="" style="edgeStyle=orthogonalEdgeStyle;rounded=0;orthogonalLoop=1;jettySize=auto;html=1;" parent="20" source="22" target="25" edge="1">
                    <mxGeometry relative="1" as="geometry"/>
                </mxCell>
                <mxCell id="22" value="&amp;lt;&amp;lt;node&amp;gt;&amp;gt;&lt;br&gt;&lt;b&gt;Broker MQTT&lt;/b&gt;" style="verticalAlign=top;align=center;spacingTop=8;spacingLeft=2;spacingRight=12;shape=cube;size=10;direction=south;fontStyle=4;html=1;whiteSpace=wrap;container=1;" parent="20" vertex="1">
                    <mxGeometry x="120" y="81.9" width="160" height="58.1" as="geometry">
                        <mxRectangle x="120" y="81.9" width="130" height="50" as="alternateBounds"/>
                    </mxGeometry>
                </mxCell>
                <mxCell id="23" value="&amp;lt;&amp;lt;database&amp;gt;&amp;gt;&lt;br&gt;&lt;b&gt;PostgreSQL Database&lt;/b&gt;" style="verticalAlign=top;align=center;spacingTop=8;spacingLeft=2;spacingRight=12;shape=cube;size=10;direction=south;fontStyle=4;html=1;whiteSpace=wrap;container=1;" parent="20" vertex="1">
                    <mxGeometry x="122" y="310" width="160" height="60" as="geometry">
                        <mxRectangle x="122" y="310" width="180" height="50" as="alternateBounds"/>
                    </mxGeometry>
                </mxCell>
                <mxCell id="24" value="" style="edgeStyle=orthogonalEdgeStyle;rounded=0;orthogonalLoop=1;jettySize=auto;html=1;" parent="20" source="25" target="23" edge="1">
                    <mxGeometry relative="1" as="geometry"/>
                </mxCell>
                <mxCell id="25" value="&lt;p style=&quot;margin:0px;margin-top:6px;text-align:center;&quot;&gt;&lt;b&gt;&amp;lt;&amp;lt;component&amp;gt;&amp;gt;&lt;/b&gt;&lt;/p&gt;&lt;hr&gt;&lt;p style=&quot;margin:0px;margin-left:8px;&quot;&gt;+ Name: Node RED server&lt;br&gt;&lt;/p&gt;" style="align=left;overflow=fill;html=1;dropTarget=0;whiteSpace=wrap;" parent="20" vertex="1">
                    <mxGeometry x="120" y="200" width="162" height="68.1" as="geometry"/>
                </mxCell>
                <mxCell id="26" value="" style="shape=component;jettyWidth=8;jettyHeight=4;" parent="25" vertex="1">
                    <mxGeometry x="1" width="20" height="20" relative="1" as="geometry">
                        <mxPoint x="-24" y="4" as="offset"/>
                    </mxGeometry>
                </mxCell>
                <mxCell id="27" style="edgeStyle=orthogonalEdgeStyle;rounded=0;orthogonalLoop=1;jettySize=auto;html=1;entryX=0;entryY=0;entryDx=60;entryDy=170;entryPerimeter=0;" parent="1" source="22" target="4" edge="1">
                    <mxGeometry relative="1" as="geometry">
                        <Array as="points">
                            <mxPoint x="396" y="330"/>
                            <mxPoint x="396" y="210"/>
                        </Array>
                    </mxGeometry>
                </mxCell>
                <mxCell id="28" value="&amp;lt;&amp;lt;protocol&amp;gt;&amp;gt;&lt;br&gt;MQTT" style="edgeLabel;html=1;align=center;verticalAlign=middle;resizable=0;points=[];" parent="27" vertex="1" connectable="0">
                    <mxGeometry x="0.4719" y="-2" relative="1" as="geometry">
                        <mxPoint as="offset"/>
                    </mxGeometry>
                </mxCell>
                <mxCell id="29" value="&amp;lt;&amp;lt;protocol&amp;gt;&amp;gt;&lt;br&gt;MQTT" style="edgeStyle=orthogonalEdgeStyle;rounded=0;orthogonalLoop=1;jettySize=auto;html=1;" parent="1" source="4" target="22" edge="1">
                    <mxGeometry x="-0.4331" relative="1" as="geometry">
                        <mxPoint x="220" y="360" as="targetPoint"/>
                        <Array as="points">
                            <mxPoint x="460" y="250"/>
                            <mxPoint x="460" y="350"/>
                        </Array>
                        <mxPoint y="1" as="offset"/>
                    </mxGeometry>
                </mxCell>
            </root>
        </mxGraphModel>
    </diagram>
</mxfile>